<mxfile host="app.diagrams.net" modified="2023-01-04T22:27:08.648Z" agent="5.0 (Windows NT 10.0; Win64; x64) AppleWebKit/537.36 (KHTML, like Gecko) Chrome/108.0.0.0 Safari/537.36" etag="4F49VGVljd6WtQgOmMkM" version="20.8.1" type="github">
  <diagram id="OB2X6vUEykkF65kOH_-Z" name="Página-1">
    <mxGraphModel dx="1050" dy="541" grid="1" gridSize="10" guides="1" tooltips="1" connect="1" arrows="1" fold="1" page="1" pageScale="1" pageWidth="827" pageHeight="1169" math="0" shadow="0">
      <root>
        <mxCell id="0" />
        <mxCell id="1" parent="0" />
        <mxCell id="eUFTGEvArJLJl9RHweRD-3" value="" style="edgeStyle=orthogonalEdgeStyle;rounded=0;orthogonalLoop=1;jettySize=auto;html=1;" parent="1" source="eUFTGEvArJLJl9RHweRD-1" target="eUFTGEvArJLJl9RHweRD-2" edge="1">
          <mxGeometry relative="1" as="geometry" />
        </mxCell>
        <mxCell id="eUFTGEvArJLJl9RHweRD-1" value="INICÍO" style="rounded=1;whiteSpace=wrap;html=1;fillColor=#d5e8d4;strokeColor=#82b366;" parent="1" vertex="1">
          <mxGeometry x="14" y="40" width="120" height="60" as="geometry" />
        </mxCell>
        <mxCell id="h29qSyJVQQBPtb748qPy-2" value="" style="edgeStyle=orthogonalEdgeStyle;rounded=0;orthogonalLoop=1;jettySize=auto;html=1;" edge="1" parent="1" source="eUFTGEvArJLJl9RHweRD-2" target="h29qSyJVQQBPtb748qPy-1">
          <mxGeometry relative="1" as="geometry" />
        </mxCell>
        <mxCell id="eUFTGEvArJLJl9RHweRD-2" value="LIGAR O INTERRUPTOR" style="whiteSpace=wrap;html=1;rounded=1;fillColor=#fff2cc;strokeColor=#d6b656;" parent="1" vertex="1">
          <mxGeometry x="14" y="130" width="120" height="60" as="geometry" />
        </mxCell>
        <mxCell id="h29qSyJVQQBPtb748qPy-12" value="" style="edgeStyle=orthogonalEdgeStyle;rounded=0;orthogonalLoop=1;jettySize=auto;html=1;" edge="1" parent="1" source="eUFTGEvArJLJl9RHweRD-8" target="eUFTGEvArJLJl9RHweRD-14">
          <mxGeometry relative="1" as="geometry" />
        </mxCell>
        <mxCell id="eUFTGEvArJLJl9RHweRD-8" value="RETIRAR A LÂMPADA DANIFICADA" style="whiteSpace=wrap;html=1;fillColor=#fff2cc;strokeColor=#d6b656;rounded=1;" parent="1" vertex="1">
          <mxGeometry x="270" y="200" width="120" height="60" as="geometry" />
        </mxCell>
        <mxCell id="eUFTGEvArJLJl9RHweRD-12" value="FIM" style="whiteSpace=wrap;html=1;fillColor=#f8cecc;strokeColor=#b85450;rounded=1;" parent="1" vertex="1">
          <mxGeometry x="590" y="290" width="120" height="60" as="geometry" />
        </mxCell>
        <mxCell id="eUFTGEvArJLJl9RHweRD-17" value="" style="edgeStyle=orthogonalEdgeStyle;rounded=0;orthogonalLoop=1;jettySize=auto;html=1;" parent="1" source="eUFTGEvArJLJl9RHweRD-14" target="eUFTGEvArJLJl9RHweRD-16" edge="1">
          <mxGeometry relative="1" as="geometry" />
        </mxCell>
        <mxCell id="eUFTGEvArJLJl9RHweRD-14" value="FAZER O DESCARTE DO ITEM DANIFICADO" style="whiteSpace=wrap;html=1;fillColor=#fff2cc;strokeColor=#d6b656;rounded=1;" parent="1" vertex="1">
          <mxGeometry x="430" y="200" width="120" height="60" as="geometry" />
        </mxCell>
        <mxCell id="eUFTGEvArJLJl9RHweRD-25" value="" style="edgeStyle=orthogonalEdgeStyle;rounded=0;orthogonalLoop=1;jettySize=auto;html=1;" parent="1" source="eUFTGEvArJLJl9RHweRD-16" target="eUFTGEvArJLJl9RHweRD-12" edge="1">
          <mxGeometry relative="1" as="geometry" />
        </mxCell>
        <mxCell id="eUFTGEvArJLJl9RHweRD-16" value="RETIRAR E INSERIR&amp;nbsp; A NOVA LÂMPADA NA BOQUILHA" style="whiteSpace=wrap;html=1;fillColor=#fff2cc;strokeColor=#d6b656;rounded=1;" parent="1" vertex="1">
          <mxGeometry x="590" y="200" width="120" height="60" as="geometry" />
        </mxCell>
        <mxCell id="h29qSyJVQQBPtb748qPy-5" style="edgeStyle=orthogonalEdgeStyle;rounded=0;orthogonalLoop=1;jettySize=auto;html=1;" edge="1" parent="1" source="h29qSyJVQQBPtb748qPy-1" target="h29qSyJVQQBPtb748qPy-3">
          <mxGeometry relative="1" as="geometry" />
        </mxCell>
        <mxCell id="h29qSyJVQQBPtb748qPy-10" value="" style="edgeStyle=orthogonalEdgeStyle;rounded=0;orthogonalLoop=1;jettySize=auto;html=1;" edge="1" parent="1" source="h29qSyJVQQBPtb748qPy-1" target="h29qSyJVQQBPtb748qPy-8">
          <mxGeometry relative="1" as="geometry" />
        </mxCell>
        <mxCell id="h29qSyJVQQBPtb748qPy-1" value="A lâmpada está acessa?" style="rhombus;whiteSpace=wrap;html=1;fillColor=#ffe6cc;strokeColor=#d79b00;" vertex="1" parent="1">
          <mxGeometry x="19" y="220" width="110" height="110" as="geometry" />
        </mxCell>
        <mxCell id="h29qSyJVQQBPtb748qPy-11" style="edgeStyle=orthogonalEdgeStyle;rounded=0;orthogonalLoop=1;jettySize=auto;html=1;" edge="1" parent="1" source="h29qSyJVQQBPtb748qPy-3" target="eUFTGEvArJLJl9RHweRD-12">
          <mxGeometry relative="1" as="geometry" />
        </mxCell>
        <mxCell id="h29qSyJVQQBPtb748qPy-3" value="SIM" style="text;html=1;strokeColor=none;fillColor=none;align=center;verticalAlign=middle;whiteSpace=wrap;rounded=0;" vertex="1" parent="1">
          <mxGeometry x="180" y="305" width="60" height="30" as="geometry" />
        </mxCell>
        <mxCell id="h29qSyJVQQBPtb748qPy-13" style="edgeStyle=orthogonalEdgeStyle;rounded=0;orthogonalLoop=1;jettySize=auto;html=1;" edge="1" parent="1" source="h29qSyJVQQBPtb748qPy-8" target="eUFTGEvArJLJl9RHweRD-8">
          <mxGeometry relative="1" as="geometry" />
        </mxCell>
        <mxCell id="h29qSyJVQQBPtb748qPy-8" value="NÃO" style="text;html=1;strokeColor=none;fillColor=none;align=center;verticalAlign=middle;whiteSpace=wrap;rounded=0;" vertex="1" parent="1">
          <mxGeometry x="180" y="215" width="60" height="30" as="geometry" />
        </mxCell>
      </root>
    </mxGraphModel>
  </diagram>
</mxfile>
